<svg width="178" height="21" viewBox="0 0 178 21" fill="none" xmlns="http://www.w3.org/2000/svg">
<path d="M5.52 16.952L0.912 11.72L5.52 6.464H11.424L6.816 11.72L11.424 16.952H5.52ZM15.5619 13.256C15.5619 11.864 15.8099 10.648 16.3059 9.608C16.8179 8.568 17.5139 7.768 18.3939 7.208C19.2739 6.648 20.2499 6.368 21.3219 6.368C22.1859 6.368 22.9539 6.552 23.6259 6.92C24.3139 7.272 24.8499 7.76 25.2339 8.384V2.24H29.9619V20H25.2339V18.128C24.8659 18.752 24.3459 19.248 23.6739 19.616C23.0019 19.984 22.2099 20.168 21.2979 20.168C20.2259 20.168 19.2499 19.888 18.3699 19.328C17.5059 18.768 16.8179 17.968 16.3059 16.928C15.8099 15.872 15.5619 14.648 15.5619 13.256ZM25.2579 13.256C25.2579 12.392 25.0179 11.712 24.5379 11.216C24.0739 10.72 23.4979 10.472 22.8099 10.472C22.1059 10.472 21.5219 10.72 21.0579 11.216C20.5939 11.696 20.3619 12.376 20.3619 13.256C20.3619 14.12 20.5939 14.808 21.0579 15.32C21.5219 15.816 22.1059 16.064 22.8099 16.064C23.4979 16.064 24.0739 15.816 24.5379 15.32C25.0179 14.824 25.2579 14.136 25.2579 13.256ZM37.4184 5.288C36.5864 5.288 35.9144 5.064 35.4024 4.616C34.9064 4.152 34.6584 3.576 34.6584 2.888C34.6584 2.184 34.9064 1.6 35.4024 1.136C35.9144 0.671999 36.5864 0.439999 37.4184 0.439999C38.2344 0.439999 38.8904 0.671999 39.3864 1.136C39.8984 1.6 40.1544 2.184 40.1544 2.888C40.1544 3.576 39.8984 4.152 39.3864 4.616C38.8904 5.064 38.2344 5.288 37.4184 5.288ZM39.7464 6.536V20H35.0424V6.536H39.7464ZM51.2813 15.56L53.8013 6.536H58.8173L54.1853 20H48.3293L43.6973 6.536H48.7133L51.2813 15.56Z" fill="#FC10C8"/>
<path d="M69.0369 13.256C69.0369 11.864 69.3249 10.648 69.9009 9.608C70.4769 8.568 71.2769 7.768 72.3009 7.208C73.3409 6.648 74.5249 6.368 75.8529 6.368C77.5649 6.368 79.0049 6.84 80.1729 7.784C81.3409 8.712 82.0929 10.016 82.4289 11.696H77.4369C77.1489 10.816 76.5889 10.376 75.7569 10.376C75.1649 10.376 74.6929 10.624 74.3409 11.12C74.0049 11.6 73.8369 12.312 73.8369 13.256C73.8369 14.2 74.0049 14.92 74.3409 15.416C74.6929 15.912 75.1649 16.16 75.7569 16.16C76.6049 16.16 77.1649 15.72 77.4369 14.84H82.4289C82.0929 16.504 81.3409 17.808 80.1729 18.752C79.0049 19.696 77.5649 20.168 75.8529 20.168C74.5249 20.168 73.3409 19.888 72.3009 19.328C71.2769 18.768 70.4769 17.968 69.9009 16.928C69.3249 15.888 69.0369 14.664 69.0369 13.256ZM91.4871 2.24V20H86.7831V2.24H91.4871ZM95.7979 13.256C95.7979 11.864 96.0459 10.648 96.5419 9.608C97.0539 8.568 97.7419 7.768 98.6059 7.208C99.4859 6.648 100.462 6.368 101.534 6.368C102.462 6.368 103.262 6.552 103.934 6.92C104.606 7.288 105.126 7.784 105.494 8.408V6.536H110.198V20H105.494V18.128C105.126 18.752 104.598 19.248 103.91 19.616C103.238 19.984 102.446 20.168 101.534 20.168C100.462 20.168 99.4859 19.888 98.6059 19.328C97.7419 18.768 97.0539 17.968 96.5419 16.928C96.0459 15.872 95.7979 14.648 95.7979 13.256ZM105.494 13.256C105.494 12.392 105.254 11.712 104.774 11.216C104.31 10.72 103.734 10.472 103.046 10.472C102.342 10.472 101.758 10.72 101.294 11.216C100.83 11.696 100.598 12.376 100.598 13.256C100.598 14.12 100.83 14.808 101.294 15.32C101.758 15.816 102.342 16.064 103.046 16.064C103.734 16.064 104.31 15.816 104.774 15.32C105.254 14.824 105.494 14.136 105.494 13.256ZM121.014 20.168C119.798 20.168 118.71 19.968 117.75 19.568C116.806 19.152 116.054 18.592 115.494 17.888C114.95 17.168 114.646 16.36 114.582 15.464H119.142C119.206 15.896 119.406 16.232 119.742 16.472C120.078 16.712 120.494 16.832 120.99 16.832C121.374 16.832 121.678 16.752 121.902 16.592C122.126 16.432 122.238 16.224 122.238 15.968C122.238 15.632 122.054 15.384 121.686 15.224C121.318 15.064 120.71 14.888 119.862 14.696C118.902 14.504 118.102 14.288 117.462 14.048C116.822 13.808 116.262 13.416 115.782 12.872C115.318 12.328 115.086 11.592 115.086 10.664C115.086 9.864 115.302 9.144 115.734 8.504C116.166 7.848 116.798 7.328 117.63 6.944C118.478 6.56 119.494 6.368 120.678 6.368C122.438 6.368 123.822 6.8 124.83 7.664C125.838 8.528 126.422 9.664 126.582 11.072H122.334C122.254 10.64 122.062 10.312 121.758 10.088C121.47 9.848 121.078 9.728 120.582 9.728C120.198 9.728 119.902 9.8 119.694 9.944C119.502 10.088 119.406 10.288 119.406 10.544C119.406 10.864 119.59 11.112 119.958 11.288C120.326 11.448 120.918 11.616 121.734 11.792C122.71 12 123.518 12.232 124.158 12.488C124.814 12.744 125.382 13.16 125.862 13.736C126.358 14.296 126.606 15.064 126.606 16.04C126.606 16.824 126.374 17.528 125.91 18.152C125.462 18.776 124.814 19.272 123.966 19.64C123.134 19.992 122.15 20.168 121.014 20.168ZM137.055 20.168C135.839 20.168 134.751 19.968 133.791 19.568C132.847 19.152 132.095 18.592 131.535 17.888C130.991 17.168 130.687 16.36 130.623 15.464H135.183C135.247 15.896 135.447 16.232 135.783 16.472C136.119 16.712 136.535 16.832 137.031 16.832C137.415 16.832 137.719 16.752 137.943 16.592C138.167 16.432 138.279 16.224 138.279 15.968C138.279 15.632 138.095 15.384 137.727 15.224C137.359 15.064 136.751 14.888 135.903 14.696C134.943 14.504 134.143 14.288 133.503 14.048C132.863 13.808 132.303 13.416 131.823 12.872C131.359 12.328 131.127 11.592 131.127 10.664C131.127 9.864 131.343 9.144 131.775 8.504C132.207 7.848 132.839 7.328 133.671 6.944C134.519 6.56 135.535 6.368 136.719 6.368C138.479 6.368 139.863 6.8 140.871 7.664C141.879 8.528 142.463 9.664 142.623 11.072H138.375C138.295 10.64 138.103 10.312 137.799 10.088C137.511 9.848 137.119 9.728 136.623 9.728C136.239 9.728 135.943 9.8 135.735 9.944C135.543 10.088 135.447 10.288 135.447 10.544C135.447 10.864 135.631 11.112 135.999 11.288C136.367 11.448 136.959 11.616 137.775 11.792C138.751 12 139.559 12.232 140.199 12.488C140.855 12.744 141.423 13.16 141.903 13.736C142.399 14.296 142.647 15.064 142.647 16.04C142.647 16.824 142.415 17.528 141.951 18.152C141.503 18.776 140.855 19.272 140.007 19.64C139.175 19.992 138.191 20.168 137.055 20.168ZM160.824 6.392V10.64H147.072V6.392H160.824ZM160.824 12.824V17.048H147.072V12.824H160.824ZM166.779 3.08H171.531L168.771 9.848H165.627L166.779 3.08ZM172.755 3.08H177.507L174.747 9.848H171.603L172.755 3.08Z" fill="#D9D9D9"/>
</svg>
