<svg width="215" height="20" viewBox="0 0 215 20" fill="none" xmlns="http://www.w3.org/2000/svg">
<path d="M7.43182 19.2472C6.05114 19.2472 4.86648 18.9631 3.87784 18.3949C2.89489 17.8267 2.1392 17.0369 1.6108 16.0256C1.08239 15.0085 0.818182 13.8324 0.818182 12.4972C0.818182 11.1562 1.08239 9.98011 1.6108 8.96875C2.14489 7.9517 2.90341 7.15909 3.88636 6.59091C4.875 6.02273 6.05398 5.73864 7.4233 5.73864C8.63352 5.73864 9.6875 5.95739 10.5852 6.39489C11.4886 6.83239 12.1932 7.4517 12.6989 8.25284C13.2102 9.0483 13.4801 9.98295 13.5085 11.0568H9.61364C9.53409 10.3864 9.30682 9.8608 8.93182 9.48011C8.5625 9.09943 8.07955 8.90909 7.48295 8.90909C7 8.90909 6.5767 9.04545 6.21307 9.31818C5.84943 9.58523 5.56534 9.98295 5.3608 10.5114C5.16193 11.0341 5.0625 11.6818 5.0625 12.4545C5.0625 13.2273 5.16193 13.8807 5.3608 14.4148C5.56534 14.9432 5.84943 15.3437 6.21307 15.6165C6.5767 15.8835 7 16.017 7.48295 16.017C7.86932 16.017 8.21023 15.9347 8.50568 15.7699C8.80682 15.6051 9.05398 15.3636 9.24716 15.0455C9.44034 14.7216 9.5625 14.3295 9.61364 13.8693H13.5085C13.4688 14.9489 13.1989 15.892 12.6989 16.6989C12.2045 17.5057 11.5085 18.1335 10.6108 18.5824C9.71875 19.0256 8.65909 19.2472 7.43182 19.2472ZM24.6321 19.2472C23.2571 19.2472 22.0753 18.9659 21.0867 18.4034C20.1037 17.8352 19.3452 17.0455 18.8111 16.0341C18.2827 15.017 18.0185 13.8381 18.0185 12.4972C18.0185 11.1506 18.2827 9.97159 18.8111 8.96023C19.3452 7.94318 20.1037 7.15341 21.0867 6.59091C22.0753 6.02273 23.2571 5.73864 24.6321 5.73864C26.0071 5.73864 27.1861 6.02273 28.1691 6.59091C29.1577 7.15341 29.9162 7.94318 30.4446 8.96023C30.9787 9.97159 31.2458 11.1506 31.2458 12.4972C31.2458 13.8381 30.9787 15.017 30.4446 16.0341C29.9162 17.0455 29.1577 17.8352 28.1691 18.4034C27.1861 18.9659 26.0071 19.2472 24.6321 19.2472ZM24.6577 16.1023C25.1577 16.1023 25.581 15.9489 25.9276 15.642C26.2742 15.3352 26.5384 14.9091 26.7202 14.3636C26.9077 13.8182 27.0015 13.1875 27.0015 12.4716C27.0015 11.7443 26.9077 11.108 26.7202 10.5625C26.5384 10.017 26.2742 9.59091 25.9276 9.28409C25.581 8.97727 25.1577 8.82386 24.6577 8.82386C24.1407 8.82386 23.7032 8.97727 23.3452 9.28409C22.9929 9.59091 22.723 10.017 22.5355 10.5625C22.3537 11.108 22.2628 11.7443 22.2628 12.4716C22.2628 13.1875 22.3537 13.8182 22.5355 14.3636C22.723 14.9091 22.9929 15.3352 23.3452 15.642C23.7032 15.9489 24.1407 16.1023 24.6577 16.1023ZM40.4283 11.5341V19H36.2607V5.90909H40.2238V8.3125H40.3687C40.6584 7.51136 41.1528 6.88352 41.8516 6.42898C42.5505 5.96875 43.3829 5.73864 44.3488 5.73864C45.2692 5.73864 46.0675 5.94602 46.7437 6.36079C47.4255 6.76989 47.9539 7.34375 48.3289 8.08239C48.7096 8.81534 48.8971 9.6733 48.8914 10.6562V19H44.7238V11.4744C44.7295 10.7472 44.5448 10.179 44.1698 9.76989C43.8005 9.3608 43.2863 9.15625 42.6272 9.15625C42.1897 9.15625 41.8033 9.25284 41.4681 9.44602C41.1386 9.63352 40.8829 9.90341 40.7011 10.2557C40.5249 10.608 40.434 11.0341 40.4283 11.5341ZM65.7806 9.90625L61.9539 10.0085C61.9141 9.7358 61.8062 9.49432 61.6301 9.28409C61.4539 9.06818 61.2238 8.90057 60.9397 8.78125C60.6613 8.65625 60.3374 8.59375 59.9681 8.59375C59.4852 8.59375 59.0732 8.69034 58.7323 8.88352C58.3971 9.0767 58.2323 9.33807 58.238 9.66761C58.2323 9.9233 58.3346 10.1449 58.5448 10.3324C58.7607 10.5199 59.1443 10.6705 59.6954 10.7841L62.2181 11.2614C63.5249 11.5114 64.4965 11.9261 65.1329 12.5057C65.7749 13.0852 66.0988 13.8523 66.1045 14.8068C66.0988 15.7045 65.8318 16.4858 65.3034 17.1506C64.7806 17.8153 64.0647 18.3324 63.1556 18.7017C62.2465 19.0653 61.2068 19.2472 60.0363 19.2472C58.167 19.2472 56.6926 18.8636 55.613 18.0966C54.5391 17.3239 53.9255 16.2898 53.7721 14.9943L57.8886 14.892C57.9795 15.3693 58.2153 15.733 58.596 15.983C58.9766 16.233 59.4624 16.358 60.0534 16.358C60.5874 16.358 61.0221 16.2585 61.3573 16.0597C61.6926 15.8608 61.863 15.5966 61.8687 15.267C61.863 14.9716 61.7323 14.7358 61.4766 14.5597C61.221 14.3778 60.8204 14.2358 60.2749 14.1335L57.9909 13.6989C56.6784 13.4602 55.7011 13.0199 55.059 12.3778C54.417 11.7301 54.0988 10.9062 54.1045 9.90625C54.0988 9.03125 54.3318 8.28409 54.8034 7.66477C55.2749 7.03977 55.9454 6.5625 56.8147 6.23295C57.684 5.90341 58.7096 5.73864 59.8914 5.73864C61.6641 5.73864 63.0619 6.1108 64.0846 6.85511C65.1073 7.59375 65.6727 8.6108 65.7806 9.90625ZM78.4255 5.90909V8.97727H70.167V5.90909H78.4255ZM71.8971 2.77273H76.0647V14.8835C76.0647 15.1392 76.1045 15.3466 76.1841 15.5057C76.2693 15.6591 76.3915 15.7699 76.5505 15.8381C76.7096 15.9006 76.9 15.9318 77.1216 15.9318C77.2807 15.9318 77.4483 15.9176 77.6244 15.8892C77.8062 15.8551 77.9426 15.8267 78.0335 15.804L78.6642 18.8125C78.4653 18.8693 78.1841 18.9403 77.8204 19.0256C77.4625 19.1108 77.0335 19.1648 76.5335 19.1875C75.5562 19.233 74.7182 19.1193 74.0193 18.8466C73.3261 18.5682 72.7949 18.1364 72.4255 17.5511C72.0619 16.9659 71.8858 16.2301 71.8971 15.3438V2.77273Z" fill="#FC10C8"/>
<path d="M98.8574 5.90909V8.97727H90.5989V5.90909H98.8574ZM92.329 2.77273H96.4966V14.8835C96.4966 15.1392 96.5364 15.3466 96.6159 15.5057C96.7012 15.6591 96.8233 15.7699 96.9824 15.8381C97.1415 15.9006 97.3318 15.9318 97.5534 15.9318C97.7125 15.9318 97.8801 15.9176 98.0563 15.8892C98.2381 15.8551 98.3745 15.8267 98.4654 15.804L99.0961 18.8125C98.8972 18.8693 98.6159 18.9403 98.2523 19.0256C97.8943 19.1108 97.4654 19.1648 96.9654 19.1875C95.9881 19.233 95.15 19.1193 94.4512 18.8466C93.758 18.5682 93.2267 18.1364 92.8574 17.5511C92.4938 16.9659 92.3176 16.2301 92.329 15.3438V2.77273ZM109.843 19.2472C108.473 19.2472 107.291 18.9773 106.297 18.4375C105.308 17.892 104.547 17.1165 104.013 16.1108C103.485 15.0994 103.22 13.8977 103.22 12.5057C103.22 11.1534 103.487 9.97159 104.022 8.96023C104.556 7.94318 105.308 7.15341 106.28 6.59091C107.252 6.02273 108.397 5.73864 109.715 5.73864C110.647 5.73864 111.499 5.88352 112.272 6.17329C113.044 6.46307 113.712 6.89205 114.274 7.46023C114.837 8.02841 115.274 8.73011 115.587 9.56534C115.899 10.3949 116.056 11.3466 116.056 12.4205V13.4602H104.678V11.0398H112.178C112.172 10.5966 112.067 10.2017 111.862 9.85511C111.658 9.50852 111.377 9.23864 111.019 9.04545C110.666 8.84659 110.26 8.74716 109.8 8.74716C109.334 8.74716 108.916 8.85227 108.547 9.0625C108.178 9.26705 107.885 9.5483 107.669 9.90625C107.453 10.2585 107.34 10.6591 107.328 11.108V13.571C107.328 14.1051 107.433 14.5739 107.644 14.9773C107.854 15.375 108.152 15.6847 108.539 15.9062C108.925 16.1278 109.385 16.2386 109.919 16.2386C110.289 16.2386 110.624 16.1875 110.925 16.0852C111.226 15.983 111.485 15.8324 111.7 15.6335C111.916 15.4347 112.078 15.1903 112.186 14.9006L116.013 15.0114C115.854 15.8693 115.504 16.6165 114.965 17.2528C114.431 17.8835 113.729 18.375 112.86 18.7273C111.99 19.0739 110.985 19.2472 109.843 19.2472ZM124.422 5.90909L126.578 10.2216L128.811 5.90909H133.013L129.357 12.4545L133.149 19H128.982L126.578 14.6534L124.235 19H120.007L123.808 12.4545L120.195 5.90909H124.422ZM145.185 5.90909V8.97727H136.926V5.90909H145.185ZM138.657 2.77273H142.824V14.8835C142.824 15.1392 142.864 15.3466 142.943 15.5057C143.029 15.6591 143.151 15.7699 143.31 15.8381C143.469 15.9006 143.659 15.9318 143.881 15.9318C144.04 15.9318 144.208 15.9176 144.384 15.8892C144.566 15.8551 144.702 15.8267 144.793 15.804L145.424 18.8125C145.225 18.8693 144.943 18.9403 144.58 19.0256C144.222 19.1108 143.793 19.1648 143.293 19.1875C142.316 19.233 141.478 19.1193 140.779 18.8466C140.085 18.5682 139.554 18.1364 139.185 17.5511C138.821 16.9659 138.645 16.2301 138.657 15.3438V2.77273ZM159.046 10.7415V7.32386H171.242V10.7415H159.046ZM159.046 16.6051V13.1875H171.242V16.6051H159.046ZM185.68 7V5.05682C185.68 4.51704 185.785 3.97159 185.995 3.42045C186.211 2.86364 186.49 2.34659 186.831 1.86932C187.177 1.38636 187.535 0.988636 187.904 0.676136L189.677 1.64773C189.37 2.14773 189.126 2.67045 188.944 3.21591C188.762 3.75568 188.674 4.36648 188.68 5.04829V7H185.68ZM189.958 7V5.05682C189.958 4.51704 190.064 3.97159 190.274 3.42045C190.49 2.86364 190.768 2.34659 191.109 1.86932C191.456 1.38636 191.814 0.988636 192.183 0.676136L193.956 1.64773C193.649 2.14773 193.404 2.67045 193.223 3.21591C193.041 3.75568 192.953 4.36648 192.958 5.04829V7H189.958ZM210.459 1.54545V3.48864C210.459 4.02841 210.351 4.57386 210.135 5.125C209.924 5.67045 209.649 6.18182 209.308 6.65909C208.967 7.13636 208.606 7.53977 208.226 7.86932L206.453 6.89773C206.714 6.46591 206.947 5.98011 207.152 5.44034C207.356 4.89489 207.459 4.24716 207.459 3.49716V1.54545H210.459ZM214.711 1.54545V3.48864C214.711 4.02841 214.603 4.57386 214.387 5.125C214.177 5.67045 213.902 6.18182 213.561 6.65909C213.22 7.13636 212.859 7.53977 212.478 7.86932L210.706 6.89773C210.967 6.46591 211.2 5.98011 211.405 5.44034C211.609 4.89489 211.711 4.24716 211.711 3.49716V1.54545H214.711Z" fill="#D9D9D9"/>
</svg>
